<?xml version="1.0" encoding="utf-8"?>
<!-- Generator: Adobe Illustrator 24.0.2, SVG Export Plug-In . SVG Version: 6.00 Build 0)  -->
<svg version="1.1" id="Слой_1" xmlns="http://www.w3.org/2000/svg" xmlns:xlink="http://www.w3.org/1999/xlink" x="0px" y="0px"
	 viewBox="0 0 287 76" style="enable-background:new 0 0 287 76;" xml:space="preserve">
<style type="text/css">
	.st0{fill:#3A3A3A;}
	.st1{fill:#BE0F6A;}
	.st2{fill:#0086AC;}
	.st3{fill:#DD7101;}
	.st4{fill:#666666;}
	.st5{fill:#DC127B;}
	.st6{fill:#0096C1;}
	.st7{opacity:0.53;fill:url(#SVGID_1_);enable-background:new    ;}
	.st8{opacity:0.53;fill:url(#SVGID_2_);enable-background:new    ;}
	.st9{opacity:0.53;fill:url(#SVGID_3_);enable-background:new    ;}
	.st10{fill:none;stroke:#DC127B;stroke-miterlimit:10;}
	.st11{opacity:0.43;fill:url(#SVGID_4_);enable-background:new    ;}
	.st12{opacity:0.43;fill:url(#SVGID_5_);enable-background:new    ;}
	.st13{opacity:0.43;fill:url(#SVGID_6_);enable-background:new    ;}
	.st14{opacity:0.43;fill:url(#SVGID_7_);enable-background:new    ;}
</style>
<g id="Фон_xA0_Изображение_1_">
</g>
<g id="POLO360">
	<g>
		<path class="st0" d="M100.8,19.7c-2.3-1.7-6-2.9-11-2.7c-4.1,0.1-7.2,0-9.7,0.2v32.4h7.4l0.1-12.7c1.2,0.2,0.2,0,1.7,0
			c4.9,0,9.3-1.2,12-3.6c2-1.7,3-4,3-6.9C104.2,23.6,103,21.2,100.8,19.7z M90,31.2c-1.1,0-2.1-0.1-2.8-0.2v-3.2c0-0.4,0-0.8,0-1.2
			V22c0.6-0.1,1.7-0.2,3.2-0.2c3.8,0,6.2,1.5,6.2,4.5C96.7,29.4,94.2,31.2,90,31.2z"/>
		<path class="st0" d="M126.6,16.2c-8.7,0-15.5,4.7-17.6,12.1c0,0.6-0.2,1.2-0.4,1.8c-0.2,1-0.3,2-0.3,3.1c0,9.8,7.3,16.4,17.6,16.4
			c10,0,18.2-5.9,18.2-17C144.3,23,137.3,16.2,126.6,16.2z M126.3,43.6c-8,0-11-3.3-11-10.2c0-7.1,2.6-11,11-11s11,4,11,10.5
			C137.4,40.2,134.4,43.6,126.3,43.6z"/>
		<path class="st0" d="M154.6,43.7V32.5c0-0.1,0-0.2,0-0.3c0-0.9,0-1.7,0-2.6V16.8l-5.9-0.2v33h25.6v-5.9
			C174.3,43.7,154.6,43.7,154.6,43.7z"/>
		<path class="st1" d="M213.6,43.7c1.5,0.8,4.8,2,8.4,2c6.6,0,8.6-3.5,8.6-6c-0.1-4.4-4.8-6.2-9.8-6.2h-2.9v-3.2h2.9
			c3.7,0,8.4-1.6,8.4-5.3c0-2.5-1.9-4.7-6.6-4.7c-3,0-5.9,1.1-7.6,2.1l-1.3-3.1c2-1.2,5.8-2.4,9.9-2.4c7.5,0,10.8,3.6,10.8,7.4
			c0,3.2-2.3,6-7,7.3v0.1c4.7,0.8,8.4,3.6,8.4,8c0,5-4.7,9.4-13.8,9.4c-4.2,0-8-1.1-9.8-2.1L213.6,43.7z"/>
		<path class="st2" d="M260.3,34.1L260.3,34.1c-0.4-0.7-0.8-1.3-1.3-1.9c0,0,0,0-0.1-0.1c0,0-0.1-0.1-0.1-0.2c-1.8-1.9-4.3-3-7.4-3
			c-3.7,0-6.4,1.6-8,3.6h-0.2c0.8-5.1,4.5-10,11.5-11.1c1.3-0.2,2.4-0.2,3.4-0.2v-3.5c-0.8,0-1.9,0-3.3,0.2
			c-4.2,0.5-7.8,2.1-10.6,4.6c-3.3,3.1-5.6,7.9-5.6,14.1c0,8.1,4.6,13.3,11.7,13.3c6.9,0,11-5.3,11-11
			C261.5,37.2,261.1,35.5,260.3,34.1z M250.3,46.9c-4.1,0-6.3-3.8-6.4-8.9c0-0.8,0.2-1.4,0.4-1.9c0.8-1.7,2.3-3,4-3.6
			c0.2-0.1,0.4-0.2,0.7-0.2s0.7-0.1,1,0c3.6,0,6,2.7,6,7.2C256,43.8,253.7,46.9,250.3,46.9z"/>
		<path class="st3" d="M285.5,33c0,10.6-4.1,16.5-11.2,16.5c-6.3,0-10.6-5.7-10.7-16c0-10.5,4.7-16.2,11.3-16.2
			C281.6,17.2,285.5,23,285.5,33z M267.9,33.5c0,8.1,2.6,12.7,6.6,12.7c4.5,0,6.6-5,6.6-13c0-7.7-2-12.7-6.6-12.7
			C270.7,20.4,267.9,25,267.9,33.5z"/>
	</g>
	<path class="st0" d="M211.9,33.4c0,11.1-8.2,17-18.2,17c-10.4,0-17.6-6.6-17.6-16.4c0-10.3,7.7-17,18.2-17
		C205,17,211.9,23.8,211.9,33.4z M183,34.2c0,3.2,0.6,5.6,2.1,7.2c1.7,2,4.6,2.9,8.9,2.9c3.8,0,6.5-0.8,8.3-2.4
		c1.9-1.8,2.8-4.5,2.8-8.3c0-3.3-0.7-5.9-2.4-7.7c-1.7-1.8-4.4-2.7-8.6-2.7c-3.6,0-6.1,0.7-7.8,2.1C183.9,27.1,183,30.1,183,34.2z"
		/>
</g>
<g id="MY_KIND_OF_BUSINESS_BLOG">
	<g>
		<path class="st4" d="M88.8,60.7c-0.1-1.3-0.2-2.8-0.1-4l0,0c-0.3,1.1-0.7,2.2-1.2,3.5l-1.6,4.5H85l-1.5-4.4
			c-0.4-1.3-0.8-2.5-1.1-3.6l0,0c0,1.2-0.1,2.7-0.2,4.1l-0.2,4h-1.1l0.6-9.3H83l1.6,4.5c0.4,1.1,0.7,2.2,0.9,3.1l0,0
			c0.2-0.9,0.6-1.9,1-3.1l1.6-4.5h1.5l0.6,9.3H89L88.8,60.7z"/>
		<path class="st4" d="M94.2,64.8v-3.9l-2.9-5.3h1.4l1.3,2.6c0.4,0.7,0.6,1.3,0.9,1.9l0,0c0.3-0.6,0.6-1.2,0.9-1.9l1.3-2.6h1.4
			l-3.1,5.3v3.9H94.2z"/>
		<path class="st4" d="M102.4,55.5h1.2V60l0,0c0.2-0.4,0.5-0.7,0.7-1l2.8-3.5h1.5l-3.4,3.9l3.6,5.3h-1.4l-3-4.5l-0.9,1v3.5h-1.2
			v-9.2H102.4z"/>
		<path class="st4" d="M111.1,55.5v9.3h-1.2v-9.3C109.9,55.5,111.1,55.5,111.1,55.5z"/>
		<path class="st4" d="M113.2,64.8v-9.3h1.3l3,4.7c0.7,1.1,1.2,2.1,1.7,3l0,0c-0.1-1.2-0.1-2.4-0.1-3.8v-3.9h1.1v9.3H119l-2.9-4.7
			c-0.6-1-1.3-2.1-1.7-3.1l0,0c0.1,1.2,0.1,2.3,0.1,3.8v4H113.2z"/>
		<path class="st4" d="M122.2,55.6c0.7-0.1,1.6-0.2,2.5-0.2c1.7,0,2.9,0.4,3.7,1.2c0.8,0.8,1.3,1.8,1.3,3.3s-0.5,2.7-1.3,3.6
			c-0.9,0.9-2.3,1.3-4.1,1.3c-0.9,0-1.6,0-2.2-0.1L122.2,55.6L122.2,55.6z M123.4,63.8c0.3,0.1,0.7,0.1,1.2,0.1
			c2.6,0,3.9-1.4,3.9-3.9c0-2.2-1.2-3.6-3.7-3.6c-0.6,0-1.1,0.1-1.4,0.1V63.8z"/>
		<path class="st4" d="M142.2,60.1c0,3.2-1.9,4.9-4.3,4.9c-2.4,0-4.2-1.9-4.2-4.7c0-2.9,1.8-4.9,4.3-4.9
			C140.5,55.4,142.2,57.3,142.2,60.1z M135,60.2c0,2,1.1,3.7,3,3.7s3-1.7,3-3.8c0-1.8-1-3.8-3-3.8C136,56.4,135,58.2,135,60.2z"/>
		<path class="st4" d="M143.7,55.5h5v1h-3.8v3.1h3.5v1h-3.5v4.2h-1.2V55.5z"/>
		<path class="st4" d="M153.3,55.6c0.5-0.1,1.3-0.2,2.2-0.2c1.2,0,2,0.2,2.5,0.7c0.5,0.4,0.8,0.9,0.8,1.6c0,0.9-0.6,1.7-1.6,2l0,0
			c0.9,0.2,1.9,0.9,1.9,2.3c0,0.8-0.3,1.4-0.8,1.9c-0.6,0.6-1.7,0.9-3.2,0.9c-0.8,0-1.5-0.1-1.9-0.1v-9.1H153.3z M154.5,59.4h1.1
			c1.3,0,2-0.7,2-1.6c0-1.1-0.8-1.5-2-1.5c-0.5,0-0.9,0-1.1,0.1V59.4z M154.5,63.9c0.2,0,0.6,0.1,1,0.1c1.2,0,2.4-0.5,2.4-1.8
			s-1.1-1.8-2.4-1.8h-1V63.9z"/>
		<path class="st4" d="M162,55.5V61c0,2.1,0.9,3,2.2,3c1.4,0,2.3-0.9,2.3-3v-5.5h1.2v5.4c0,2.8-1.5,4-3.5,4c-1.9,0-3.3-1.1-3.3-4
			v-5.5L162,55.5L162,55.5z"/>
		<path class="st4" d="M169.5,63.3c0.5,0.3,1.3,0.6,2.1,0.6c1.2,0,1.9-0.6,1.9-1.6c0-0.9-0.5-1.4-1.7-1.8c-1.5-0.5-2.4-1.3-2.4-2.6
			c0-1.4,1.2-2.5,3-2.5c0.9,0,1.6,0.2,2,0.5l-0.3,1c-0.3-0.2-0.9-0.4-1.8-0.4c-1.3,0-1.7,0.8-1.7,1.4c0,0.9,0.6,1.3,1.8,1.8
			c1.6,0.6,2.4,1.4,2.4,2.7c0,1.4-1.1,2.7-3.2,2.7c-0.9,0-1.9-0.3-2.4-0.6L169.5,63.3z"/>
		<path class="st4" d="M177.7,55.5v9.3h-1.2v-9.3C176.5,55.5,177.7,55.5,177.7,55.5z"/>
		<path class="st4" d="M179.7,64.8v-9.3h1.3l3,4.7c0.7,1.1,1.2,2.1,1.7,3l0,0c-0.1-1.2-0.1-2.4-0.1-3.8v-3.9h1.1v9.3h-1.2l-2.9-4.7
			c-0.6-1-1.3-2.1-1.7-3.1l0,0c0.1,1.2,0.1,2.3,0.1,3.8v4H179.7z"/>
		<path class="st4" d="M193.6,60.4H190v3.3h4v1h-5.2v-9.3h5v1H190v2.9h3.6V60.4z"/>
		<path class="st4" d="M195.4,63.3c0.5,0.3,1.3,0.6,2.1,0.6c1.2,0,1.9-0.6,1.9-1.6c0-0.9-0.5-1.4-1.7-1.8c-1.5-0.5-2.4-1.3-2.4-2.6
			c0-1.4,1.2-2.5,3-2.5c0.9,0,1.6,0.2,2,0.5l-0.3,1c-0.3-0.2-0.9-0.4-1.8-0.4c-1.3,0-1.7,0.8-1.7,1.4c0,0.9,0.6,1.3,1.8,1.8
			c1.6,0.6,2.4,1.4,2.4,2.7c0,1.4-1.1,2.7-3.2,2.7c-0.9,0-1.9-0.3-2.4-0.6L195.4,63.3z"/>
		<path class="st4" d="M202.2,63.3c0.5,0.3,1.3,0.6,2.1,0.6c1.2,0,1.9-0.6,1.9-1.6c0-0.9-0.5-1.4-1.7-1.8c-1.5-0.5-2.4-1.3-2.4-2.6
			c0-1.4,1.2-2.5,3-2.5c0.9,0,1.6,0.2,2,0.5l-0.3,1c-0.3-0.2-0.9-0.4-1.8-0.4c-1.3,0-1.7,0.8-1.7,1.4c0,0.9,0.6,1.3,1.8,1.8
			c1.6,0.6,2.4,1.4,2.4,2.7c0,1.4-1.1,2.7-3.2,2.7c-0.9,0-1.9-0.3-2.4-0.6L202.2,63.3z"/>
		<path class="st4" d="M212,55.6c0.5-0.1,1.3-0.2,2.2-0.2c1.2,0,2,0.2,2.5,0.7c0.5,0.4,0.8,0.9,0.8,1.6c0,0.9-0.6,1.7-1.6,2l0,0
			c0.9,0.2,1.9,0.9,1.9,2.3c0,0.8-0.3,1.4-0.8,1.9c-0.6,0.6-1.7,0.9-3.2,0.9c-0.8,0-1.5-0.1-1.9-0.1v-9.1H212z M213.2,59.4h1.1
			c1.3,0,2-0.7,2-1.6c0-1.1-0.8-1.5-2-1.5c-0.5,0-0.9,0-1.1,0.1V59.4z M213.2,63.9c0.2,0,0.6,0.1,1,0.1c1.2,0,2.4-0.5,2.4-1.8
			s-1.1-1.8-2.4-1.8h-1V63.9z"/>
		<path class="st4" d="M219.5,55.5h1.2v8.3h4v1h-5.1L219.5,55.5L219.5,55.5z"/>
		<path class="st4" d="M233.8,60.1c0,3.2-1.9,4.9-4.3,4.9c-2.4,0-4.2-1.9-4.2-4.7c0-2.9,1.8-4.9,4.3-4.9
			C232.2,55.4,233.8,57.3,233.8,60.1z M226.7,60.2c0,2,1.1,3.7,3,3.7s3-1.7,3-3.8c0-1.8-1-3.8-3-3.8
			C227.7,56.4,226.7,58.2,226.7,60.2z"/>
		<path class="st4" d="M242.4,64.4c-0.5,0.2-1.6,0.5-2.8,0.5c-1.4,0-2.6-0.4-3.5-1.2c-0.8-0.8-1.3-2-1.3-3.4c0-2.8,1.9-4.8,5-4.8
			c1.1,0,1.9,0.2,2.3,0.4l-0.3,1c-0.5-0.2-1.1-0.4-2-0.4c-2.3,0-3.7,1.4-3.7,3.7s1.4,3.7,3.6,3.7c0.8,0,1.3-0.1,1.6-0.2v-2.8h-1.9
			v-1h3L242.4,64.4L242.4,64.4z"/>
	</g>
</g>
<g id="Shape_4_copy_2_xA0_Изображение_1_">
</g>
<g id="Layer_30_xA0_Изображение_1_">
	<path class="st5" d="M16.2,6H4.7C2.6,6,1,7.6,1,9.7v48.8c0,2,1.6,3.7,3.7,3.7h11.6c2,0,3.7-1.6,3.7-3.7V9.7C19.9,7.6,18.3,6,16.2,6
		z"/>
	<path class="st6" d="M41.3,6H29.7c-2,0-3.7,1.6-3.7,3.7v62.7c0,2,1.6,3.7,3.7,3.7h11.6c2,0,3.7-1.6,3.7-3.7V9.7
		C45,7.6,43.3,6,41.3,6z"/>
	<path class="st3" d="M66.3,6H54.8c-2,0-3.7,1.6-3.7,3.7v58.7c0,2,1.6,3.7,3.7,3.7h11.6c2,0,3.7-1.6,3.7-3.7V9.7
		C70,7.6,68.4,6,66.3,6z"/>
	
		<linearGradient id="SVGID_1_" gradientUnits="userSpaceOnUse" x1="7.7344" y1="67.6255" x2="17.3892" y2="10.5215" gradientTransform="matrix(1 0 0 -1 0 75)">
		<stop  offset="0" style="stop-color:#FFFFFF;stop-opacity:0.58"/>
		<stop  offset="0.1089" style="stop-color:#F1F1F1;stop-opacity:0.5"/>
		<stop  offset="0.313" style="stop-color:#CECECE;stop-opacity:0.55"/>
		<stop  offset="0.4787" style="stop-color:#E2569F;stop-opacity:0.53"/>
		<stop  offset="0.8923" style="stop-color:#707070"/>
		<stop  offset="0.9892" style="stop-color:#DC127B;stop-opacity:0"/>
	</linearGradient>
	<path class="st7" d="M19.5,44.4L7.2,41.7C4,41.3,0.5,40.4,1,36.4v-8.2V9.4C1,9.2,1,8,2.1,7c0.7-0.6,1.6-1,2.6-1h11.6
		c2,0,3.6,1.5,3.6,3.3v34.8C19.9,44.3,19.7,44.4,19.5,44.4z"/>
	<linearGradient id="SVGID_2_" gradientUnits="userSpaceOnUse" x1="31.671" y1="9.154" x2="39.338" y2="45.3372">
		<stop  offset="0" style="stop-color:#FFFFFF;stop-opacity:0.8"/>
		<stop  offset="0.1135" style="stop-color:#FBFDFE;stop-opacity:0.8227"/>
		<stop  offset="0.2377" style="stop-color:#EDF8FB;stop-opacity:0.8475"/>
		<stop  offset="0.367" style="stop-color:#D7EFF5;stop-opacity:0.8734"/>
		<stop  offset="0.4998" style="stop-color:#B9E2EE;stop-opacity:0.9"/>
		<stop  offset="0.6353" style="stop-color:#91D2E4;stop-opacity:0.9271"/>
		<stop  offset="0.7731" style="stop-color:#61BED9;stop-opacity:0.9546"/>
		<stop  offset="0.9102" style="stop-color:#29A7CB;stop-opacity:0.982"/>
		<stop  offset="1" style="stop-color:#0096C1"/>
	</linearGradient>
	<path class="st8" d="M45,29.7c0-6.5,0-13.2,0-20.2c0-0.8-0.4-1.8-1.2-2.6c-0.6-0.5-1.4-0.8-2.1-0.9h-12c-2,0-3.6,1.5-3.6,3.3v36.4
		v-0.1L45,48.3C45,41.6,45,36.2,45,29.7z"/>
	
		<linearGradient id="SVGID_3_" gradientUnits="userSpaceOnUse" x1="60.5278" y1="67.9748" x2="60.5278" y2="3.3983" gradientTransform="matrix(1 0 0 -1 0 75)">
		<stop  offset="0" style="stop-color:#FFFFFF;stop-opacity:0.58"/>
		<stop  offset="0.1089" style="stop-color:#F1F1F1;stop-opacity:0.5848"/>
		<stop  offset="0.313" style="stop-color:#CECECE;stop-opacity:0.5938"/>
		<stop  offset="0.5597" style="stop-color:#E4892B;stop-opacity:0.5"/>
		<stop  offset="0.6797" style="stop-color:#DD7101"/>
		<stop  offset="0.8887" style="stop-color:#DD7101"/>
	</linearGradient>
	<path class="st9" d="M51.1,48.8H70V9.5C70,7.6,68.2,6,66,6H54.3c-0.5,0-1.5,0.3-2.1,0.8c-0.7,0.6-1.1,1.6-1.1,2.3
		c0,6.5-0.1,13.4,0,19.9"/>
	<path class="st10" d="M19.4,48.1"/>
	<path class="st10" d="M19.4,48.1"/>
	<path class="st10" d="M26,48.7"/>
	
		<linearGradient id="SVGID_4_" gradientUnits="userSpaceOnUse" x1="117.6" y1="58.3776" x2="117.6" y2="31.4864" gradientTransform="matrix(1 0 0 -1 0 75)">
		<stop  offset="0.3669" style="stop-color:#FFFFFF;stop-opacity:0.58"/>
		<stop  offset="0.4497" style="stop-color:#F1F1F1;stop-opacity:0.5848"/>
		<stop  offset="0.6049" style="stop-color:#CECECE;stop-opacity:0.5938"/>
		<stop  offset="0.8143" style="stop-color:#949494;stop-opacity:0.606"/>
		<stop  offset="0.8839" style="stop-color:#808080;stop-opacity:0.61"/>
	</linearGradient>
	<path class="st11" d="M155.1,24.9c-0.1-0.7-0.1-1.4,0-2.1c-0.3-0.6-0.4-1.3-0.4-2v-2.6c0-0.1,0-0.3,0-0.4c0-0.2,0-0.4,0-0.6
		c0-0.4,0-0.7,0.1-1h-40.4c0,1.4-0.6,2.9-1.6,3.8l0,0c-0.2,0.6-0.5,1.2-1,1.6c-0.2,0.2-0.3,0.3-0.5,0.5c-0.8,0.8-1.9,1.4-3.4,1.4
		c-2.9,0-4.5-2-4.8-4.2c-0.7-0.9-1.1-2-1.1-3.1H80.1V34h20.6c0,0,0,0,0-0.1c0.1-0.1,0.1-0.1,0.2-0.2c0,0,0.1-0.1,0.2-0.1
		c0.1-0.1,0.2-0.2,0.3-0.3c0.2-0.3,0.5-0.5,0.7-0.7c0.2-0.3,0.4-0.5,0.7-0.8l0.1-0.1l0.1-0.1c0.1-0.1,0.1-0.2,0.2-0.3
		c0.2-0.3,0.3-0.6,0.5-0.9v-0.1c0,0.1,0,0.1,0,0s0.1-0.2,0.1-0.3c0.1-0.2,0.2-0.4,0.3-0.6c-0.1-0.2-0.1-0.4,0-0.5
		c0.1-0.2,0.1-0.4,0.1-0.6c0.1-0.6,0-1.3,0-1.9s0.5-1,1-1c0.1,0,0.2,0,0.4,0.1c0.4-0.8,1.6-0.9,1.9,0.1c0.1,0.3,0.1,0.5,0.1,0.8
		c0.5-0.1,1.1,0.1,1.2,0.7c0.3,1.1,0.1,2.3-0.4,3.4c-0.1,0.3-0.1,0.6-0.2,0.9c-0.1,0.2-0.1,0.4-0.2,0.6c0-0.1,0,0.2,0,0.3
		s0,0.3,0,0.4c0,0.2,0,0.5,0.1,0.7c0,0.1,0,0.2,0,0.2c0-0.1,0,0,0,0.1s0,0.2,0,0.3h7.6c-0.6-2-0.1-3.8,0.9-5.3
		c0.5-1.4,1.7-2.3,3.1-2.9c1.2-0.8,2.6-1.4,3.9-1.8c5.7-1.6,12.1,2.4,13.3,8.1c0.1,0.7,0.1,1.4,0.1,2h7.2c0-0.1,0-0.3,0.1-0.4
		c-0.1-0.5,0-1.1,0.1-1.6c0-0.1,0-0.2,0.1-0.3c0-0.2-0.1-0.5-0.1-0.8c-0.1-0.5-0.1-1-0.2-1.6c-0.1-0.5-0.1-0.9-0.1-1.4
		c0.1-0.5,0.3-0.9,0.9-1c0.3,0,0.6,0.1,0.8,0.3c0.1,0,0.3,0.1,0.4,0.1c0,0,0,0,0.1,0c0-0.1,0.1-0.1,0.1-0.2c0.5-0.6,1.5-0.6,1.9,0.1
		c0.4,0.6,0.2,1.2,0.2,1.8c0,0.5,0.1,1,0.2,1.6c0,0.4,0,0.9-0.1,1.3c0,0.1,0,0.1,0,0.2c0,0.2,0,0.5,0,0.7s0,0.4,0,0.6
		c0,0.2,0,0.4,0,0.6h6.3c-0.2-0.6-0.4-1.2-0.4-1.8C154.5,29.7,154.5,27.3,155.1,24.9z M95.4,27c0,0.2-0.1,0.3-0.2,0.5
		c0,0.3,0,0.6-0.1,1v0.1c0,0.1-0.2,0.5-0.3,0.6l0,0c0,0,0,0,0,0.1c-0.1,0.2-0.3,0.4-0.4,0.6c0,0,0,0-0.1,0.1
		c-0.2,0.2-0.4,0.3-0.6,0.4l-0.1,0.1c-0.1,0.1-0.3,0.1-0.3,0.1c-0.1,0.1-0.2,0.1-0.4,0.1c-0.2,0.1-0.5,0.1-0.8,0.1H92
		c-0.1,0-0.3,0-0.4,0s-0.3,0-0.4-0.1h-0.1c-0.1,0-0.1-0.1-0.2-0.1c-0.2,0.1-0.3,0.2-0.5,0.2c-0.3,0-0.7,0-1,0.1
		c-0.4,0-0.8,0-1.2-0.1c-0.4-0.1-0.7-0.4-0.7-0.8c0-0.3,0.1-0.6,0.3-0.8l0,0c-0.2-0.1-0.5-0.3-0.5-0.6c-0.4-1.3,0-2.6,0.1-4
		c0-0.5,0.1-1.1,0.3-1.5c0.4-0.7,1.2-0.8,1.9-0.7c0.4,0.1,0.7,0.5,0.7,0.9h0.1c0.3,0,0.7,0.1,1,0.2s0.6,0.3,0.8,0.5l0,0
		c0.1,0,0.1,0,0.2,0.1c0.2,0,0.4-0.1,0.5-0.1c0.2,0,0.4,0.1,0.7,0.1c0.6,0.1,1.1,0.6,1.5,1.1c0.2,0.3,0.3,0.6,0.3,0.9
		C95.5,26.3,95.5,26.6,95.4,27z"/>
	
		<linearGradient id="SVGID_5_" gradientUnits="userSpaceOnUse" x1="222.7219" y1="58.3776" x2="222.7219" y2="31.4864" gradientTransform="matrix(1 0 0 -1 0 75)">
		<stop  offset="0.3669" style="stop-color:#FFFFFF;stop-opacity:0.58"/>
		<stop  offset="0.4497" style="stop-color:#F1F1F1;stop-opacity:0.5848"/>
		<stop  offset="0.6049" style="stop-color:#CECECE;stop-opacity:0.5938"/>
		<stop  offset="0.8143" style="stop-color:#949494;stop-opacity:0.606"/>
		<stop  offset="0.8839" style="stop-color:#808080;stop-opacity:0.61"/>
	</linearGradient>
	<path class="st12" d="M224.2,27.6c0.2-0.1,0.4-0.2,0.7-0.3c0.8-0.4,1.8-1,2-1.9c0.2-1-0.3-1.6-1.2-2c-1.1-0.5-2.3-1-3.5-1
		c-0.2,0-0.4,0-0.6,0c-0.1,0.2-0.2,0.4-0.4,0.5s-0.3,0.2-0.5,0.3l-0.1,0.1c-0.1,0.1-0.2,0.2-0.3,0.3c-0.3,0.2-0.5,0.5-0.8,0.8
		c0.1,0.2,0.2,0.4,0.2,0.7c0,0.7-0.5,1.4-1,1.8c-0.1,0.1-0.1,0.1-0.2,0.1c0.1,0,0.2,0,0.3,0c0.2,0.1,0.4,0.2,0.5,0.4
		c0-0.2,0-0.4,0.1-0.5c0.2-0.3,0.4-0.6,0.5-0.9c0.1-0.2,0.1-0.4,0.2-0.5c0-0.3,0.3-0.5,0.5-0.6s0.5-0.2,0.7-0.1
		c0.1-0.1,0.1-0.1,0.2-0.2c0.2-0.2,0.5-0.3,0.7-0.3c0.3,0,0.5,0.1,0.7,0.3c0.2,0.1,0.2,0.4,0.3,0.6c0.6-0.7,2.1-0.2,1.7,0.9
		C224.8,26.5,224.5,27.1,224.2,27.6z"/>
	
		<linearGradient id="SVGID_6_" gradientUnits="userSpaceOnUse" x1="215.55" y1="58.3776" x2="215.55" y2="31.4864" gradientTransform="matrix(1 0 0 -1 0 75)">
		<stop  offset="0.3669" style="stop-color:#FFFFFF;stop-opacity:0.58"/>
		<stop  offset="0.4497" style="stop-color:#F1F1F1;stop-opacity:0.5848"/>
		<stop  offset="0.6049" style="stop-color:#CECECE;stop-opacity:0.5938"/>
		<stop  offset="0.8143" style="stop-color:#949494;stop-opacity:0.606"/>
		<stop  offset="0.8839" style="stop-color:#808080;stop-opacity:0.61"/>
	</linearGradient>
	<path class="st13" d="M217.5,23.5c-0.9,0.4-1.8,0.8-2.5,1.5c-0.4,0.4-0.8,0.8-1.2,1.2c-0.1,0.1-0.1,0.2-0.2,0.3
		c0.1,0.1,0.1,0.1,0.2,0.2c0,0.1,0.1,0.2,0.1,0.2c0.2-0.5,0.6-0.8,1.1-1c0.1,0,0.1,0,0.2,0c0-0.1,0.1-0.1,0.1-0.2
		c0.3-0.4,0.7-0.8,1-1.1c0.2-0.2,0.5-0.5,0.8-0.7C217.2,23.8,217.4,23.6,217.5,23.5z"/>
	
		<linearGradient id="SVGID_7_" gradientUnits="userSpaceOnUse" x1="225.1999" y1="58.3776" x2="225.1999" y2="31.4864" gradientTransform="matrix(1 0 0 -1 0 75)">
		<stop  offset="0.3669" style="stop-color:#FFFFFF;stop-opacity:0.58"/>
		<stop  offset="0.4497" style="stop-color:#F1F1F1;stop-opacity:0.5848"/>
		<stop  offset="0.6049" style="stop-color:#CECECE;stop-opacity:0.5938"/>
		<stop  offset="0.8143" style="stop-color:#949494;stop-opacity:0.606"/>
		<stop  offset="0.8839" style="stop-color:#808080;stop-opacity:0.61"/>
	</linearGradient>
	<path class="st14" d="M165.3,16.2c0,0.4,0,0.7-0.1,1.1c0,0.6-0.2,1.2-0.6,1.8v1.8c0,0.4-0.1,0.7-0.1,1.1c0.3-0.6,0.6-1.2,1-1.7
		c0.8-1.1,2.1-1.6,3.4-0.9c0.5,0.3,0.9,0.8,1.1,1.4c0.7,0.1,1.2,0.6,1.6,1.2c0.4,0.6,0.7,1.2,0.9,1.8c0.4,0.1,0.7,0.4,1,0.7
		c0.2-1,1.7-0.8,1.9,0c0.1,0.3,0.1,0.7,0.1,1l0,0c0.4-1.1,1.8-0.9,2,0.3c0,0.2,0,0.5-0.1,0.7s-0.2,0.3-0.3,0.4
		c-0.6,1.7-1.3,3.4-1.4,5.1c0,0.2,0,0.6,0,0.7c0,0.1,0.1,0.3,0.1,0.4c0.1,0.3,0.1,0.6,0.1,0.9h7.5c-0.1-0.5-0.1-1.1-0.1-1.6
		c0-1,0.1-2.1,0.5-3c0.4-1.1,1.1-2.2,2-3s2-1.5,3.1-1.6c0.7-0.1,1.3-0.1,1.9,0.3l0.1,0.1c1.7-0.4,3.5-0.3,5.1,0.2
		c0.4,0.1,0.9,0.3,1.3,0.5c0,0,0.1,0,0.3,0.1c0.9,0.3,1.8,0.7,2.6,1.1c1.8,1,3.1,2.4,3.7,4.4c0.3,0.9,0.3,1.8,0,2.6h8
		c0-0.3,0-0.5,0-0.8c0-0.5,0-0.9,0-1.4c0-0.3,0-0.3-0.1-0.6c-0.1-0.3-0.1-0.5-0.2-0.8c0-0.3-0.1-0.5-0.1-0.8c0-0.2-0.1-0.4-0.1-0.6
		c0,0,0-0.3,0-0.2c-0.1-0.5-0.1-0.9-0.1-1.3c-0.5-0.9,0-1.8,0.8-2.6c1-1,2-2.1,3.2-2.7c1.2-0.7,2.6-1.1,4-1.5
		c1.3-0.4,2.5-0.5,3.9-0.3c1.3,0.2,2.6,0.7,3.8,1.4c1,0.5,1.6,1.4,1.8,2.5c0.4,2.4-1.5,4.1-3.6,5c-1.2,0.5-2.5,0.7-3.8,0.7
		c-0.6,0-1.3,0.1-1.9,0c-0.1,0.1-0.3,0.1-0.4,0.1H219c0,0,0,0-0.1,0l0,0h-0.1c-0.1,0-0.1,0-0.2,0h-0.1h-0.1c-0.1,0-0.2,0-0.2,0
		c-0.1,0-0.2,0-0.2,0c0,0.1,0,0.1,0,0.2v0.1l0,0v0.1c0,0,0,0,0,0.1l0,0l0,0v0.1l0,0v0.1c0,0,0,0,0,0.1l0,0c0,0.1,0,0.1,0,0.2v0.1
		l0,0c0,0.1,0,0.2,0,0.3c0,0,0,0.1,0,0.2l0,0v0.1l0,0l0,0c0,0.1,0,0.2,0,0.3l0,0c0,0,0,0,0,0.1c0,0.2,0,0.2,0,0.3l0,0v0.1
		c0,0.1,0,0.2,0,0.3c0,0,0,0,0,0.1l0,0V33c0,0,0,0,0,0.1l0,0l0,0v0.1l0,0l0,0l0,0c0,0,0,0,0.1,0l0,0l0,0c0.1,0,0.2,0,0.3,0.1
		c0.1,0,0.1-0.1,0.2,0l0,0l0,0l0,0l0,0h0.1l0,0c0,0,0,0,0.1,0l0,0c0.1,0,0.3,0,0.4,0.1c0.1,0,0.2,0,0.3,0c0.6,0,1.3,0.1,1.9,0.1
		c0.6,0,1.3,0,1.9,0.1c0.4,0.1,0.9,0.2,1.3,0.3h8.5c-0.1-0.1-0.1-0.1-0.2-0.2c-0.1,0-0.1-0.1-0.2-0.1c-0.1-0.1-0.3-0.1-0.4-0.2
		c-0.6-0.3-1.2-0.8-1.7-1.2c-0.3-0.2-0.5-0.6-0.5-1c0-0.3,0.3-0.8,0.7-0.8c0.2,0,0.4,0,0.6,0c0-0.1,0.1-0.2,0.2-0.2l0,0
		c0-0.4,0.3-0.8,0.8-0.9l0,0c0-0.1,0.2-0.2,0.3-0.3c0.2-0.3,0.4-0.6,0.6-0.9c0.4-0.6,0.7-1.3,1.1-1.9c0.2-0.3,0.5-0.6,0.6-1v-0.1
		c0-1.2,0.3-2.5,0.7-3.7c0.2-0.5,0.6-0.7,0.9-0.7c0.1-0.2,0.1-0.5,0.2-0.7c0.1-0.5,0.6-0.8,1.1-0.7c0,0,0,0,0.1,0
		c0-0.5,0.1-1,0.2-1.5c0.2-1.1,2-0.8,2,0.3c0,0.5-0.1,1.1-0.2,1.6c-0.1,0.6-0.1,1.3-0.2,1.9c-0.1,0.8-0.2,1.5-0.4,2.3
		c0.3-0.2,0.6-0.3,0.9-0.2c0.5,0.2,0.8,0.7,0.7,1.2c-0.3,1.3-0.6,2.6-1,3.8c-0.2,0.6-0.4,1.2-0.6,1.7c-0.2,0.6-0.3,1.1-0.4,1.7
		c-0.1,0.4-0.1,1-0.3,1.4l-0.1,0.1v0.1h7.5c0.3-0.4,0.6-0.8,1.2-1c0.2-0.2,0.4-0.3,0.7-0.4c0.3-0.2,0.6-0.3,0.9-0.3
		c0.6-0.1,1.3-0.1,1.9,0.1c0.6,0.2,1.2,0.4,1.8,0.7c0,0,0.1,0,0.1,0.1h0.1c0.2,0.1,0.4,0.1,0.5,0.2c0.3,0.2,0.5,0.4,0.6,0.7h6.3
		c0-0.2-0.1-0.3,0-0.5v-0.1c-0.1-0.1-0.1-0.2-0.1-0.3H260c-0.1-0.1-0.2-0.2-0.3-0.3l-0.1-0.1h-0.1c-0.1-0.1-0.2-0.2-0.3-0.3
		c-0.1-0.1-0.2-0.1-0.2-0.2c-0.1-0.1-0.2-0.2-0.2-0.3c0,0,0-0.1-0.1-0.1c-0.2-0.2-0.4-0.4-0.6-0.6c-0.1-0.1-0.2-0.3-0.2-0.5
		c0,0-0.1,0-0.1-0.1c0,0-0.1,0-0.1-0.1c-0.4-0.3-0.6-0.8-0.4-1.2c-0.1-0.1-0.2-0.2-0.3-0.2c0.1,0.1,0.2,0.2,0.3,0.2l0,0
		c-0.2-0.2-0.4-0.3-0.6-0.5c-0.1,0-0.2-0.1-0.2-0.1c-2.8-0.4-2.7-5,0.4-5c0.5,0,0.8,0.1,1.2,0.3c0.1,0,0.2,0.1,0.4,0.1l0,0
		c0.1,0,0.1,0,0.2,0.1c0.1,0,0.1,0.1,0.2,0.1s0.1,0,0.2,0.1l0,0l0,0h0.1c0.1,0.1,0.2,0.1,0.3,0.2h0.1h0.3c0.3,0,0.5,0.1,0.8,0.1
		c0.6,0.1,1.1,0.3,1.4,0.7c0.2-0.2,0.4-0.4,0.8-0.4c0.5,0,0.8,0.3,1,0.7c0.4,1.3,0,2.7-0.4,4c0,0,0,0,0,0.1c0.1,1.2,0.4,2.4,0.4,3.6
		c0,0.1,0,0.2-0.1,0.3l0,0l0,0l0,0v0.1c0,0,0,0,0,0.1h4.7c0-0.1,0-0.2,0-0.2c-0.1-0.2-0.1-0.4-0.1-0.7l0,0c0-0.1,0-0.2,0-0.3
		s0-0.3,0-0.4V32c0-0.1,0-0.3,0.1-0.4c0-0.2-0.1-0.3-0.1-0.5l0,0c0-0.5,0.1-0.9,0.3-1.3l0.4-0.5c0.1-0.3,0.2-0.7,0.4-1
		c0.1-0.7,0.3-1.4,0.6-2.1c0.1-0.2,0.2-0.4,0.4-0.5c0.1-1.3,0.3-2.9,1.4-3.8c0.6-0.4,1.1-0.7,1.8-0.7c0.7,0,1.3,0.3,1.8,0.7
		c0.5,0.4,0.7,1.2,0.7,1.8c0,0.5-0.2,1.1-0.5,1.6v0.1c0.4-0.2,0.7-0.3,1.1-0.3c0.9,0,1.7,0.5,2.1,1.3c1.5,0.3,2.1,1.7,1.9,2.9
		c0.1,0.2,0.3,0.4,0.3,0.7c0.2,0.6,0.3,1.3,0.3,2c0,0.2,0,0.4,0.1,0.5c0,0.1,0,0.2,0,0.4c0,0.3,0,0.5,0,0.8h4.4V16.2H165.3z"/>
</g>
</svg>
